<svg id="Layer_1" data-name="Layer 1" xmlns="http://www.w3.org/2000/svg" xmlns:xlink="http://www.w3.org/1999/xlink" viewBox="0 0 101.71 122.16"><defs><style>.cls-1{fill:url(#linear-gradient);}.cls-2{fill:url(#linear-gradient-2);}.cls-3{fill:url(#linear-gradient-3);}.cls-4{fill:url(#linear-gradient-4);}</style><linearGradient id="linear-gradient" x1="-25.48" y1="128.46" x2="143.17" y2="-111.31" gradientUnits="userSpaceOnUse"><stop offset="0" stop-color="#3fffff"/><stop offset="1" stop-color="#3700aa"/></linearGradient><linearGradient id="linear-gradient-2" x1="-11.77" y1="138.09" x2="156.87" y2="-101.67" xlink:href="#linear-gradient"/><linearGradient id="linear-gradient-3" x1="3.75" y1="149.01" x2="172.39" y2="-90.76" xlink:href="#linear-gradient"/><linearGradient id="linear-gradient-4" x1="-6.08" y1="142.1" x2="162.56" y2="-97.67" xlink:href="#linear-gradient"/></defs><title>xemse logo final</title><path class="cls-1" d="M29,86a7.17,7.17,0,0,0,7.17-7.17V23.1a7.17,7.17,0,1,0-14.34,0V78.87A7.17,7.17,0,0,0,29,86Z"/><path class="cls-2" d="M51,97.73a7.17,7.17,0,0,0,7.17-7.17V7.17a7.17,7.17,0,1,0-14.34,0V90.56A7.17,7.17,0,0,0,51,97.73Z"/><path class="cls-3" d="M72.7,86a7.17,7.17,0,0,0,7.17-7.17V23.1a7.17,7.17,0,1,0-14.34,0V78.87A7.17,7.17,0,0,0,72.7,86Z"/><path class="cls-4" d="M94.54,30a7.17,7.17,0,0,0-7.17,7.17v34h0v.13A36.51,36.51,0,0,1,25,97.12,36.24,36.24,0,0,1,14.34,71.3v-.13h0v-34A7.17,7.17,0,0,0,0,37.18v35H0a50.84,50.84,0,0,0,101.67,0h0v-35A7.17,7.17,0,0,0,94.54,30Z"/></svg>