<?xml version="1.0" encoding="utf-8"?>
<!-- Generator: Adobe Illustrator 23.0.1, SVG Export Plug-In . SVG Version: 6.00 Build 0)  -->
<svg version="1.1" baseProfile="tiny" id="Layer_1" xmlns="http://www.w3.org/2000/svg" xmlns:xlink="http://www.w3.org/1999/xlink"
	 x="0px" y="0px" width="13.5px" height="13.5px" viewBox="0 0 13.5 13.5" xml:space="preserve">
<g>
	<path fill="#FFFFFF" d="M13.5,1.2c0-0.1,0-0.2-0.1-0.2c0,0,0,0,0,0c0-0.1-0.1-0.1-0.1-0.2c0,0,0,0,0-0.1c0-0.1-0.1-0.1-0.1-0.1
		c0,0,0-0.1-0.1-0.1c0,0-0.1-0.1-0.1-0.1c0,0-0.1-0.1-0.1-0.1c0,0,0,0-0.1,0c-0.1,0-0.1-0.1-0.2-0.1c0,0,0,0,0,0
		c-0.1,0-0.2-0.1-0.2-0.1c-0.1,0-0.2,0-0.3,0H6.8H1.5C0.7,0,0,0.7,0,1.5v5.3V12c0,0.8,0.7,1.5,1.5,1.5h5.3H12c0.8,0,1.5-0.7,1.5-1.5
		V1.5C13.5,1.4,13.5,1.3,13.5,1.2z M12,12H6.8H1.5V6.8V1.5h5.3H12V12z"/>
	<path fill="#FFFFFF" d="M3.6,3.8c0,0.4,0.3,0.8,0.8,0.8h4.8c0.4,0,0.8-0.3,0.8-0.8S9.6,3,9.1,3H4.4C3.9,3,3.6,3.4,3.6,3.8z"/>
	<path fill="#FFFFFF" d="M9.1,6H4.4C3.9,6,3.6,6.3,3.6,6.8c0,0.4,0.3,0.8,0.8,0.8h4.8c0.4,0,0.8-0.3,0.8-0.8C9.9,6.3,9.6,6,9.1,6z"
		/>
	<path fill="#FFFFFF" d="M9.1,9H4.4C3.9,9,3.6,9.3,3.6,9.7s0.3,0.8,0.8,0.8h4.8c0.4,0,0.8-0.3,0.8-0.8S9.6,9,9.1,9z"/>
</g>
</svg>
