<svg width="14" height="15" viewBox="0 0 14 15" fill="none" xmlns="http://www.w3.org/2000/svg">
<path d="M11.1678 10.3315C11.1232 10.3315 11.0897 10.3426 11.0451 10.3426L10.9112 9.7847L11.9936 8.3229V7.84307V7.49715V7.00616L10.9223 5.54436L11.0562 4.98642C11.1009 4.98642 11.1343 4.99758 11.179 4.99758C12.4622 4.99758 13.5112 3.94865 13.5112 2.66539C13.5112 1.38213 12.4511 0.34436 11.1678 0.34436C9.88455 0.34436 8.84678 1.39329 8.84678 2.67655C8.84678 3.65852 9.44936 4.48427 10.3086 4.8302L10.1858 5.36582L8.32232 5.89028L5.61073 5.82333L4.28283 5.19844L3.79185 5.28771L3.69142 4.8302C4.55064 4.48427 5.15322 3.64736 5.15322 2.67655C5.15322 1.39329 4.10429 0.34436 2.83219 0.34436C1.56009 0.34436 0.5 1.39329 0.5 2.67655C0.5 3.95981 1.54893 5.00874 2.83219 5.00874C2.87682 5.00874 2.9103 4.99758 2.95494 4.99758L3.05536 5.42161L2.68712 5.47741L2.55322 6.66024L2.12918 7.03964V7.48599V7.83191V8.27827L2.54206 8.65766L2.67597 9.8405L3.03305 9.90745L2.94378 10.3538C2.89914 10.3538 2.86567 10.3426 2.82103 10.3426C1.54893 10.3315 0.5 11.3804 0.5 12.6637C0.5 13.9469 1.54893 14.9959 2.83219 14.9959C4.11545 14.9959 5.16438 13.9469 5.16438 12.6637C5.16438 11.6817 4.5618 10.8559 3.70258 10.51L3.79185 10.0525L4.28283 10.1418L5.59957 9.51689L8.31116 9.44994L10.1747 9.98556L10.2974 10.5212C9.4382 10.8671 8.83562 11.704 8.83562 12.6748C8.83562 13.9581 9.88455 15.007 11.1678 15.007C12.4511 15.007 13.5 13.9581 13.5 12.6748C13.5 11.3916 12.4511 10.3315 11.1678 10.3315ZM10.7103 12.2508C10.6099 12.3624 10.5429 12.5075 10.5429 12.6637C10.5429 13.0096 10.8219 13.2886 11.1678 13.2886C11.5137 13.2886 11.7927 13.0096 11.7927 12.6637C11.7927 12.4293 11.6588 12.2285 11.4579 12.1169L11.1901 10.9564C12.1163 10.9675 12.8751 11.7263 12.8751 12.6637C12.8751 13.601 12.1052 14.371 11.1678 14.371C10.2305 14.371 9.46052 13.601 9.46052 12.6637C9.46052 11.983 9.86223 11.3916 10.4425 11.1238L10.7103 12.2508ZM11.4579 3.21217C11.6588 3.11174 11.7927 2.91088 11.7927 2.66539C11.7927 2.31947 11.5137 2.0405 11.1678 2.0405C10.8219 2.05166 10.5429 2.33063 10.5429 2.67655C10.5429 2.83277 10.6099 2.97784 10.7103 3.08942L10.4536 4.21646C9.87339 3.93749 9.46052 3.35724 9.46052 2.67655C9.46052 1.73921 10.2305 0.969253 11.1678 0.969253C12.1052 0.969253 12.8751 1.73921 12.8751 2.67655C12.8751 3.61389 12.1163 4.37269 11.1901 4.38384L11.4579 3.21217ZM3.44592 2.67655C3.44592 2.33063 3.16695 2.05166 2.82103 2.05166C2.47511 2.05166 2.2073 2.33063 2.2073 2.67655C2.2073 2.91088 2.3412 3.11174 2.54206 3.22333L2.80987 4.38384C1.87253 4.36153 1.12489 3.60273 1.12489 2.67655C1.12489 1.73921 1.89485 0.969253 2.83219 0.969253C3.76953 0.969253 4.53948 1.73921 4.53948 2.67655C4.53948 3.35724 4.13777 3.94865 3.55751 4.21646L3.2897 3.07827C3.39013 2.96668 3.44592 2.83277 3.44592 2.67655ZM2.54206 12.1169C2.3412 12.2173 2.2073 12.4182 2.2073 12.6637C2.2073 13.0096 2.48627 13.2886 2.83219 13.2886C3.17811 13.2886 3.45708 13.0096 3.45708 12.6637C3.45708 12.5075 3.39013 12.3624 3.2897 12.2508L3.54635 11.1238C4.12661 11.3916 4.52833 11.983 4.52833 12.6637C4.52833 13.601 3.75837 14.371 2.82103 14.371C1.88369 14.371 1.11373 13.601 1.11373 12.6637C1.11373 11.7263 1.87253 10.9675 2.79871 10.9564L2.54206 12.1169ZM8.42275 8.61303H8.3L5.58841 8.69114H5.40987L5.25365 8.76925L4.17124 9.28256L3.43476 9.15981L3.36781 8.57955L3.32318 8.27827L3.1 8.07741L2.95494 7.93234V7.84307V7.49715V7.39672L3.1 7.26281L3.32318 7.06196L3.35665 6.76067L3.42361 6.18041L4.16009 6.04651L5.24249 6.55981L5.40987 6.63792H5.58841L8.3 6.70487H8.42275L8.54549 6.6714L10.3644 6.15809L11.1901 7.27397V7.48599V7.83191V8.04393L10.3644 9.15981L8.54549 8.64651L8.42275 8.61303Z" fill="white"/>
</svg>
