<svg width="14" height="15" viewBox="0 0 14 15" fill="none" xmlns="http://www.w3.org/2000/svg">
<path d="M11.58 11.0601C9.7 9.18007 9.7 6.13007 11.58 4.24007C11.75 4.07007 11.75 3.80007 11.58 3.63007L11.27 3.32007C11.1 3.15007 10.83 3.15007 10.66 3.32007C8.78 5.20007 5.73 5.20007 3.84 3.32007C3.67 3.15007 3.4 3.15007 3.23 3.32007L2.93 3.63007C2.76 3.80007 2.76 4.07007 2.93 4.24007C4.81 6.12007 4.81 9.17007 2.93 11.0601C2.76 11.2301 2.76 11.5001 2.93 11.6701L3.24 11.9801C3.41 12.1501 3.68 12.1501 3.85 11.9801C5.73 10.1001 8.78 10.1001 10.67 11.9801C10.84 12.1501 11.11 12.1501 11.28 11.9801L11.59 11.6701C11.75 11.5001 11.75 11.2301 11.58 11.0601ZM7.24 8.82007C6.6 8.82007 6.08 8.30007 6.08 7.66007C6.08 7.02007 6.6 6.51007 7.24 6.51007C7.88 6.51007 8.4 7.02007 8.4 7.66007C8.4 8.30007 7.88 8.82007 7.24 8.82007Z" fill="white"/>
<path d="M13.25 10.02C12.68 9.45002 11.92 9.21001 11.18 9.28001C11.29 9.53001 11.42 9.77001 11.58 10C12 10.03 12.42 10.21 12.74 10.53C13.46 11.25 13.46 12.42 12.74 13.14C12.02 13.86 10.85 13.86 10.13 13.14C9.8 12.81 9.62 12.39 9.59 11.96C9.36 11.8 9.12 11.67 8.87 11.57C8.79 12.32 9.04 13.09 9.61 13.66C10.61 14.66 12.24 14.66 13.25 13.66C14.26 12.66 14.25 11.02 13.25 10.02Z" fill="white"/>
<path d="M8.86 3.74008C9.11 3.64008 9.35 3.50008 9.58 3.35008C9.62 2.92008 9.79 2.51008 10.12 2.19008C10.84 1.47008 12.01 1.47008 12.73 2.19008C13.45 2.91008 13.45 4.08008 12.73 4.80008C12.4 5.13008 11.98 5.30008 11.56 5.33008C11.41 5.56008 11.28 5.80008 11.17 6.05008C11.91 6.12008 12.68 5.88008 13.25 5.31008C14.25 4.31008 14.25 2.68008 13.25 1.67008C12.25 0.660075 10.62 0.670075 9.61 1.67008C9.04 2.24008 8.79 3.00008 8.86 3.74008Z" fill="white"/>
<path d="M2.96 5.34005C2.53 5.31005 2.1 5.14005 1.77 4.80005C1.05 4.08005 1.05 2.91005 1.77 2.19005C2.49 1.47005 3.66 1.47005 4.38 2.19005C4.69 2.51005 4.87 2.92005 4.91 3.34005C5.14 3.50005 5.38 3.63005 5.63 3.74005C5.7 3.00005 5.45 2.24005 4.89 1.68005C3.89 0.680054 2.26 0.680054 1.25 1.68005C0.24 2.68005 0.25 4.31005 1.25 5.32005C1.82 5.89005 2.6 6.14005 3.35 6.06005C3.24 5.81005 3.11 5.57005 2.96 5.34005Z" fill="white"/>
<path d="M5.63 11.5701C5.38 11.6701 5.14 11.8001 4.92 11.9601C4.89 12.4001 4.72 12.8201 4.38 13.1601C3.66 13.8801 2.49 13.8801 1.77 13.1601C1.05 12.4401 1.05 11.2701 1.77 10.5501C2.1 10.2201 2.51 10.0501 2.93 10.0101C3.09 9.78006 3.22 9.54006 3.33 9.29006C2.59 9.22006 1.83 9.47006 1.26 10.0301C0.26 11.0301 0.26 12.6601 1.26 13.6701C2.26 14.6801 3.89 14.6701 4.9 13.6701C5.47 13.1001 5.72 12.3201 5.63 11.5701Z" fill="white"/>
</svg>
