<?xml version="1.0" encoding="iso-8859-1"?>
<!-- Generator: Adobe Illustrator 19.0.0, SVG Export Plug-In . SVG Version: 6.00 Build 0)  -->
<svg version="1.1" id="Capa_1" xmlns="http://www.w3.org/2000/svg" xmlns:xlink="http://www.w3.org/1999/xlink" x="0px" y="0px"
	 viewBox="0 0 478.169 478.169" style="enable-background:new 0 0 478.169 478.169;" xml:space="preserve" fill="#ffffff">
<g>
	<g>
		<path d="M370.799,39.811L370.799,39.811c-2.223-2.5-5.14-4.283-8.38-5.12C249.996-33.646,103.461,2.093,35.124,114.517
			c-6.282,10.335-11.768,21.134-16.411,32.302c0,0.171-0.119,0.341-0.188,0.512c-50.723,121.821,6.914,261.696,128.735,312.419
			c121.821,50.723,261.696-6.914,312.419-128.735C503.741,225.194,466.443,102.992,370.799,39.811z M239.113,34.179
			c29.621,0.029,58.879,6.53,85.726,19.046l-66.56,44.373l-59.29-59.426C212.2,35.53,225.64,34.193,239.113,34.179z M34.313,238.979
			c0.049-23.271,4.09-46.362,11.947-68.267h124.587v51.2h-51.2c-9.426,0-17.067,7.641-17.067,17.067v68.267
			c0,9.426,7.641,17.067,17.067,17.067h85.333v59.733l-53.197,39.902C80.162,390.184,34.42,318.159,34.313,238.979z
			 M190.319,437.669h0.051l41.916-31.437c4.297-3.223,6.827-8.281,6.827-13.653v-85.333c0-9.426-7.641-17.067-17.067-17.067h-85.333
			v-34.133h51.2c9.426,0,17.067-7.641,17.067-17.067v-85.333c0-9.426-7.641-17.067-17.067-17.067H62.029
			c22.772-39.287,57.899-69.937,99.908-87.177l82.176,82.176c5.753,5.755,14.768,6.648,21.538,2.133l92.16-61.44
			c10.266,7.332,19.846,15.581,28.621,24.644l-122.231,76.39c-4.99,3.119-8.021,8.588-8.021,14.473v51.2
			c0,9.426,7.641,17.067,17.067,17.067h34.133v68.267c0.001,4.526,1.8,8.866,5.001,12.066l58.846,58.846
			C321.368,437.859,253.936,453.68,190.319,437.669z M395.358,371.041v0.068l-53.845-53.862v-78.268
			c0-9.426-7.641-17.067-17.067-17.067h-34.133v-24.661l117.845-73.677C460.195,199.508,454.952,300.881,395.358,371.041z"/>
	</g>
</g>
<g>
</g>
<g>
</g>
<g>
</g>
<g>
</g>
<g>
</g>
<g>
</g>
<g>
</g>
<g>
</g>
<g>
</g>
<g>
</g>
<g>
</g>
<g>
</g>
<g>
</g>
<g>
</g>
<g>
</g>
</svg>
