<svg width="14" height="14" viewBox="0 0 14 14" fill="none" xmlns="http://www.w3.org/2000/svg">
<path d="M1.825 12.2669C1.75 12.2669 1.75 12.2669 1.825 12.2669L1.75 8.81282L5.125 5.43382H5.2L7.75 7.98684C8.275 8.51246 9.1 8.51246 9.55 7.98684L13.525 4.00713C13.675 3.85695 13.75 3.70677 13.75 3.48151C13.75 2.80571 12.925 2.43026 12.475 2.95588L8.725 6.71033H8.65L6.1 4.15731C5.575 3.63168 4.75 3.63168 4.3 4.15731L1.75 6.71033V1.00357C1.75 0.553041 1.45 0.252686 1 0.252686C0.55 0.252686 0.25 0.553041 0.25 1.00357V12.1918C0.25 13.0929 0.925 13.7687 1.825 13.7687H13C13.45 13.7687 13.75 13.4683 13.75 13.0178C13.75 12.5673 13.45 12.2669 13 12.2669H1.825Z" fill="#fff"/>
</svg>
