<svg id="Capa_1" enable-background="new 0 0 512 512" height="512" viewBox="0 0 512 512" width="512" xmlns="http://www.w3.org/2000/svg"><g><path d="m240.819 200.054v94.179c-19.879 6.372-34.312 25.024-34.312 46.991 0 27.206 22.133 49.339 49.339 49.339 27.205 0 49.339-22.133 49.339-49.339 0-21.967-14.433-40.619-34.312-46.991v-94.179z"/><path d="m183.629 424.263h144.433v30.054h-144.433z"/><path d="m240.974 57.709c-35.79 2.069-69.611 11.467-99.981 26.732l41.077 71.147c18.149-8.501 38-13.965 58.904-15.748z"/><path d="m271.028 57.683v82.153c20.87 1.798 40.701 7.31 58.843 15.857l41.21-71.378c-30.398-15.216-64.24-24.584-100.053-26.632z"/><path d="m397.12 99.322-41.266 71.476c16.719 11.744 31.303 26.333 43.035 43.048l71.505-41.283c-19.184-29.153-44.155-54.089-73.274-73.241z"/><path d="m429.85 298.667h82.14c-2.056-35.909-11.394-69.743-26.576-100.073l-71.426 41.238c8.555 18.158 14.058 37.996 15.862 58.835z"/><path d="m41.8 172.673 71.148 41.077c11.736-16.767 26.339-31.379 43.107-43.115l-41.077-71.147c-29.071 19.176-54.001 44.114-73.178 73.185z"/><path d="m97.898 239.764-71.153-41.08c-15.266 30.37-24.663 64.193-26.732 99.983h82.133c1.784-20.904 7.251-40.754 15.752-58.903z"/><path d="m429.85 328.721c-1.938 22.708-8.207 44.18-18.006 63.57-9.848 19.486-2.938 43.251 15.97 54.167 20.337 11.742 46.387 4.035 57.013-16.906 15.521-30.588 25.084-64.706 27.173-100.83h-82.15z"/><path d="m82.143 328.721h-82.143c2.091 36.171 11.679 70.33 27.235 100.949 10.613 20.889 36.662 28.503 56.954 16.787 18.857-10.887 25.875-34.606 16.037-54.031-9.838-19.426-16.141-40.943-18.083-63.705z"/></g></svg>